<?xml version="1.0" encoding="UTF-8"?>
<svg width="512px" height="479px" viewBox="0 0 512 479" version="1.1" xmlns="http://www.w3.org/2000/svg" xmlns:xlink="http://www.w3.org/1999/xlink">
    <!-- Generator: Sketch 63.1 (92452) - https://sketch.com -->
    <title>001-chat</title>
    <desc>Created with Sketch.</desc>
    <g id="Page-1" stroke="none" stroke-width="1" fill="none" fill-rule="evenodd">
        <g id="001-chat" fill="#FFFFFF" fill-rule="nonzero">
            <path d="M333.201,98.038 C304.296,39.017 243.831,-0.004 176.008,-0.004 C78.961,-0.004 0.008,78.501 0.008,174.996 C0.008,201.22 5.638,226.355 16.75,249.79 L0.299,332.055 C-1.795,342.527 7.443,351.783 17.917,349.711 L101.196,333.246 C112.409,338.565 124.009,342.61 135.928,345.397 C109.211,218.856 205.127,100.076 333.201,98.038 Z" id="Path"></path>
            <path d="M495.266,377.79 C498.14,371.729 500.639,365.553 502.777,359.276 L502.228,359.276 C539.676,249.359 460.923,133.835 344.661,128.21 C344.659,128.204 344.658,128.198 344.656,128.192 C244.62,123.582 161.508,203.678 161.508,302.996 C161.508,399.41 239.869,477.853 336.251,477.993 C362.394,477.958 387.452,472.33 410.819,461.246 C502.026,479.278 494.913,477.996 497.008,477.996 C506.487,477.996 513.568,469.31 511.717,460.055 L495.266,377.79 Z" id="Path"></path>
        </g>
    </g>
</svg>