<svg width="96" height="49" viewBox="0 0 96 49" fill="none" xmlns="http://www.w3.org/2000/svg">
<path d="M92.6018 39.375C94.0094 39.375 95.1505 38.1997 95.1505 36.75C95.1505 35.3003 94.0094 34.125 92.6018 34.125C91.1942 34.125 90.0531 35.3003 90.0531 36.75C90.0531 38.1997 91.1942 39.375 92.6018 39.375Z" fill="#F2AD5F" fill-opacity="0.65"/>
<path d="M23.7876 42.875C30.8255 42.875 36.5309 37.3905 36.5309 30.625C36.5309 23.8595 30.8255 18.375 23.7876 18.375C16.7496 18.375 11.0442 23.8595 11.0442 30.625C11.0442 37.3905 16.7496 42.875 23.7876 42.875Z" fill="url(#paint0_linear)"/>
<path d="M46.0393 23.8189C46.0393 22.6274 46.3523 21.6704 46.9785 20.9478C47.6047 20.2205 48.4246 19.8567 49.4381 19.8567C50.4464 19.8567 51.245 20.1679 51.8341 20.7899V16.7416H53.3067V27.7666H51.9535L51.8819 26.934C51.2929 27.5848 50.4729 27.9102 49.4223 27.9102C48.4246 27.9102 47.6101 27.5417 46.9785 26.8048C46.3523 26.068 46.0393 25.1061 46.0393 23.9193V23.8189ZM47.5119 23.9696C47.5119 24.8502 47.7135 25.5391 48.1169 26.0368C48.5201 26.5345 49.0773 26.7832 49.7884 26.7832C50.7223 26.7832 51.4043 26.4053 51.8341 25.6492V22.0818C51.3936 21.3498 50.717 20.9837 49.8043 20.9837C49.0827 20.9837 48.5201 21.2349 48.1169 21.7374C47.7135 22.2398 47.5119 22.9839 47.5119 23.9696ZM61.7 27.9102C60.5324 27.9102 59.5826 27.5657 58.8502 26.8766C58.1179 26.1828 57.7519 25.2569 57.7519 24.0988V23.8548C57.7519 23.0844 57.9136 22.3977 58.2373 21.7948C58.5664 21.1871 59.0227 20.7133 59.6065 20.3735C60.1955 20.029 60.8324 19.8567 61.5169 19.8567C62.6364 19.8567 63.5068 20.1893 64.1277 20.8545C64.7486 21.5196 65.0589 22.4719 65.0589 23.7112V24.264H59.2245C59.2456 25.0295 59.4923 25.6492 59.9646 26.123C60.4422 26.5919 61.0472 26.8263 61.7795 26.8263C62.2995 26.8263 62.74 26.7306 63.1009 26.5392C63.4617 26.3478 63.7774 26.0943 64.048 25.7784L64.9475 26.41C64.2259 27.4101 63.1432 27.9102 61.7 27.9102ZM61.5169 20.9478C60.9226 20.9478 60.4237 21.144 60.0203 21.5363C59.6171 21.924 59.3677 22.4694 59.2721 23.1729H63.5865V23.0724C63.5439 22.3977 63.3423 21.8762 62.9815 21.5077C62.6207 21.1345 62.1323 20.9478 61.5169 20.9478ZM70.6901 20.0003L70.7379 20.9765C71.396 20.2299 72.2556 19.8567 73.3169 19.8567C75.1371 19.8567 76.0551 20.7827 76.071 22.6345V27.7666H74.5984V22.6274C74.5932 22.0674 74.4499 21.6536 74.1686 21.3857C73.8927 21.1177 73.4602 20.9837 72.8711 20.9837C72.3935 20.9837 71.9743 21.0986 71.6135 21.3282C71.2527 21.5578 70.9714 21.8594 70.7698 22.2326V27.7666H69.2972V20.0003H70.6901ZM82.4186 27.7666H80.946V20.0003H82.4186V27.7666ZM80.8266 17.9403C80.8266 17.7251 80.8982 17.5431 81.0415 17.3948C81.1902 17.2465 81.4077 17.1723 81.6943 17.1723C81.9808 17.1723 82.1983 17.2465 82.3469 17.3948C82.4956 17.5431 82.5698 17.7251 82.5698 17.9403C82.5698 18.1556 82.4956 18.3351 82.3469 18.4787C82.1983 18.6223 81.9808 18.694 81.6943 18.694C81.4077 18.694 81.1902 18.6223 81.0415 18.4787C80.8982 18.3351 80.8266 18.1556 80.8266 17.9403ZM51.4122 35.5067C51.4122 35.1477 51.261 34.8702 50.9585 34.674C50.6613 34.4731 50.1387 34.3008 49.3904 34.1572C48.6474 34.0136 48.0559 33.8413 47.6153 33.6404C47.1803 33.4394 46.8566 33.2002 46.6443 32.9226C46.4373 32.6451 46.3338 32.315 46.3338 31.9321C46.3338 31.2956 46.6309 30.7574 47.2254 30.3171C47.8249 29.8769 48.5891 29.6567 49.5178 29.6567C50.4943 29.6567 51.2849 29.8841 51.8899 30.3386C52.5001 30.7932 52.8051 31.3747 52.8051 32.0829H51.3246C51.3246 31.7191 51.1521 31.4057 50.8072 31.1426C50.4676 30.8794 50.0378 30.7478 49.5178 30.7478C48.9818 30.7478 48.5625 30.853 48.2602 31.0637C47.9577 31.2742 47.8064 31.5493 47.8064 31.889C47.8064 32.2096 47.947 32.4514 48.2283 32.614C48.5094 32.7767 49.0162 32.9322 49.7485 33.0805C50.4863 33.2288 51.0831 33.4059 51.5396 33.6117C51.996 33.8175 52.3329 34.0662 52.5505 34.3581C52.7734 34.6453 52.8848 34.9971 52.8848 35.4133C52.8848 36.1071 52.5771 36.6647 51.9614 37.0858C51.3459 37.502 50.5471 37.7102 49.5656 37.7102C48.8757 37.7102 48.2654 37.6001 47.7347 37.3799C47.204 37.1599 46.7876 36.8537 46.4851 36.4612C46.1878 36.0641 46.0393 35.6359 46.0393 35.1764H47.5119C47.5384 35.6215 47.7347 35.9756 48.101 36.2387C48.4723 36.4971 48.9606 36.6263 49.5656 36.6263C50.1227 36.6263 50.5685 36.5259 50.9027 36.3248C51.2423 36.1192 51.4122 35.8464 51.4122 35.5067ZM64.6053 33.7696C64.6053 34.9515 64.3054 35.9037 63.7058 36.6263C63.1061 37.3489 62.2943 37.7102 61.2702 37.7102C60.2247 37.7102 59.4021 37.4111 58.8024 36.813V40.5525H57.33V29.8003H58.6751L58.7468 30.6617C59.3464 29.9917 60.1796 29.6567 61.2463 29.6567C62.2811 29.6567 63.0981 30.0086 63.6979 30.7119C64.3029 31.4153 64.6053 32.3939 64.6053 33.6476V33.7696ZM63.1327 33.6189C63.1327 32.7432 62.9257 32.0517 62.5118 31.5445C62.0979 31.0372 61.5301 30.7837 60.8085 30.7837C59.9169 30.7837 59.2482 31.1401 58.8024 31.8532V35.564C59.2429 36.2722 59.9169 36.6263 60.8244 36.6263C61.5301 36.6263 62.09 36.3751 62.5039 35.8727C62.923 35.3654 63.1327 34.6142 63.1327 33.6189ZM68.6205 33.6117C68.6205 32.8509 68.7851 32.1665 69.1141 31.5589C69.4485 30.9511 69.9102 30.4822 70.499 30.152C71.0935 29.8219 71.77 29.6567 72.529 29.6567C73.7016 29.6567 74.6489 30.0228 75.3706 30.755C76.0976 31.487 76.4612 32.4608 76.4612 33.6764V33.7696C76.4612 34.5257 76.2992 35.2052 75.9756 35.808C75.6571 36.4063 75.1981 36.8728 74.5984 37.2078C74.0041 37.5428 73.3196 37.7102 72.5447 37.7102C71.3773 37.7102 70.4302 37.3442 69.7031 36.612C68.9815 35.8799 68.6205 34.9108 68.6205 33.7049V33.6117ZM70.1011 33.7696C70.1011 34.6309 70.3213 35.3224 70.7618 35.844C71.2076 36.3655 71.8019 36.6263 72.5447 36.6263C73.293 36.6263 73.8875 36.3632 74.3278 35.8368C74.7683 35.3056 74.9886 34.5639 74.9886 33.6117C74.9886 32.7599 74.763 32.071 74.3118 31.5445C73.8661 31.0134 73.2718 30.7478 72.529 30.7478C71.8019 30.7478 71.2156 31.0086 70.7698 31.5302C70.324 32.0517 70.1011 32.7983 70.1011 33.7696ZM84.9976 30.9918C84.7748 30.9583 84.5333 30.9415 84.2732 30.9415C83.3074 30.9415 82.6521 31.3124 82.3072 32.0541V37.5666H80.8346V29.8003H82.2674L82.2913 30.6975C82.7742 30.0036 83.4587 29.6567 84.3449 29.6567C84.6315 29.6567 84.849 29.6902 84.9976 29.7573V30.9918ZM91.2814 27.9198V29.8003H92.8893V30.8267H91.2814V35.6431C91.2814 35.954 91.3531 36.1884 91.4964 36.3464C91.6397 36.4996 91.8838 36.5762 92.2287 36.5762C92.3984 36.5762 92.6319 36.5474 92.9291 36.4899V37.5666C92.5417 37.6623 92.165 37.7102 91.7989 37.7102C91.1408 37.7102 90.6447 37.5307 90.3103 37.1719C89.976 36.813 89.809 36.3034 89.809 35.6431V30.8267H88.2407V29.8003H89.809V27.9198H91.2814Z" fill="#0D152A"/>
<path d="M3.5874 35.9333V8.06458H12.3115C15.0001 8.06458 17.3775 8.60051 19.4436 9.6724C21.5096 10.7443 23.1015 12.2691 24.2195 14.247C25.3516 16.2249 25.9247 18.4962 25.9388 21.061V22.8412C25.9388 25.4699 25.3728 27.773 24.2407 29.7508C23.1227 31.7288 21.5166 33.2473 19.4224 34.3064C17.3421 35.3654 14.9152 35.9079 12.1416 35.9333H3.5874ZM7.66287 11.0888V32.9283H11.9506C15.0921 32.9283 17.5332 32.0478 19.2737 30.2869C21.0285 28.5258 21.9059 26.0185 21.9059 22.7646V21.1376C21.9059 17.973 21.0779 15.5167 19.4224 13.7685C17.7808 12.0075 15.4459 11.1143 12.4176 11.0888H7.66287ZM31.8754 23.511C28.3801 22.605 25.833 21.495 24.234 20.1807C22.6491 18.8536 21.8566 17.2202 21.8566 15.2806C21.8566 13.0858 22.8259 11.2738 24.7645 9.84466C26.7175 8.40273 29.2504 7.68176 32.3635 7.68176C34.4862 7.68176 36.3754 8.05183 38.0312 8.79192C39.7008 9.53204 40.9887 10.5529 41.8944 11.8544C42.8141 13.156 43.274 14.5788 43.274 16.1228H39.1774C39.1774 14.4384 38.5829 13.1177 37.3943 12.1607C36.2055 11.1909 34.5288 10.706 32.3635 10.706C30.3542 10.706 28.7835 11.1079 27.6514 11.9119C26.5334 12.703 25.9745 13.8068 25.9745 15.2232C25.9745 16.3588 26.5052 17.3223 27.5664 18.1133C28.642 18.8918 30.4604 19.6064 33.0216 20.2571C35.5971 20.908 37.6066 21.6289 39.05 22.4201C40.5074 23.1984 41.583 24.1108 42.2764 25.1571C42.9839 26.2036 43.3376 27.4349 43.3376 28.8514C43.3376 31.1099 42.3613 32.9218 40.4085 34.2873C38.4556 35.6398 35.8447 36.3162 32.5758 36.3162C30.4533 36.3162 28.4721 35.9525 26.6325 35.2251C24.793 34.4851 23.3707 33.477 22.366 32.2008C21.3754 30.9249 20.8801 29.4766 20.8801 27.856H24.9768C24.9768 29.5403 25.6631 30.8738 27.0357 31.8564C28.4227 32.8262 30.2693 33.311 32.5758 33.311C34.7268 33.311 36.3754 32.9154 37.5216 32.1244C38.6678 31.3332 39.2409 30.2549 39.2409 28.8896C39.2409 27.5243 38.7104 26.4714 37.649 25.7314C36.5877 24.9786 34.6632 24.2383 31.8754 23.511Z" fill="#0D152A"/>
<defs>
<linearGradient id="paint0_linear" x1="23.7876" y1="18.375" x2="23.7876" y2="42.875" gradientUnits="userSpaceOnUse">
<stop stop-color="#F2AD5F"/>
<stop offset="1" stop-color="#F2AD5F" stop-opacity="0"/>
</linearGradient>
</defs>
</svg>
